<?xml version="1.0"?>
<svg xmlns="http://www.w3.org/2000/svg" xmlns:xlink="http://www.w3.org/1999/xlink" version="1.1" id="Capa_1" x="0px" y="0px" viewBox="0 0 512 512" style="enable-background:new 0 0 512 512;" xml:space="preserve" width="512px" height="512px"><g><g>
	<g>
		<path d="M0,0v512h512V0H0z M482,482H30V30h452V482z" data-original="#000000" class="active-path" data-old_color="#000000" fill="#B8A07E"/>
	</g>
</g><g>
	<g>
		<path d="M202.18,181.6H172.9L107.86,352h34.08l15.6-42.48h59.52L232.9,352h34.08L202.18,181.6z M163.06,286.24l24.48-66.96    l23.52,66.96H163.06z" data-original="#000000" class="active-path" data-old_color="#000000" fill="#B8A07E"/>
	</g>
</g><g>
	<g>
		<path d="M403.301,288.64c0-43.39-33.551-64.56-65.52-64.56c-44.781,0-66.48,34.545-66.48,65.76c0,34.785,26.074,64.56,66.24,64.56    c38.209,0,53.917-23.28,58.56-32.88l-27.6-7.68c-2.081,5.123-11.918,17.04-29.76,17.04c-27.574,0-32.88-26.479-33.36-31.44h97.2    C402.9,298.161,403.301,290.721,403.301,288.64z M304.901,278.56c1.474-18.435,15.474-31.2,32.4-31.2    c16.449,0,30.949,11.14,32.88,31.2H304.901z" data-original="#000000" class="active-path" data-old_color="#000000" fill="#B8A07E"/>
	</g>
</g></g> </svg>
