<svg xmlns="http://www.w3.org/2000/svg" viewBox="0 0 163.65 195.95"><defs><style>.cls-1{fill:#b8a07e;}</style></defs><g id="圖層_2" data-name="圖層 2"><g id="圖層_1-2" data-name="圖層 1"><path class="cls-1" d="M24.94.13c2.16,0,4.33.07,6.5,0C36-.06,39.25,2,41.82,5.77Q70.17,47.05,98.69,88.21c1.83,2.64,2.3,4.62.24,7.49Q81.5,120,64.43,144.58c-9.92,14.26-19.89,28.5-29.42,43-3.64,5.56-7.68,8.88-14.62,8a53.7,53.7,0,0,0-9.49,0c-4.13.19-7.71-.75-9.72-4.65S-.12,183,2.24,179.52c4.55-6.76,9.28-13.4,13.9-20.11Q38.43,127,60.75,94.59c1.44-2.08,1.47-3.4,0-5.54C44.19,65.36,27.82,41.56,11.31,17.84,8.5,13.81,6.42,9.75,8.79,4.9S15.82,0,20.44.13C21.94.19,23.44.14,24.94.13Z"/><path class="cls-1" d="M145.26,195.49c-6.77,1.75-11.84-1.6-16.42-8.75-8.21-12.82-17.7-24.82-26.5-37.28a4.8,4.8,0,0,1-.23-4.34c4.75-7.18,9.8-14.16,14.72-21.23,1.8-2.59,3.36-3.36,5.54-.21,8.79,12.73,17.72,25.37,26.58,38,4.13,5.91,8.2,11.85,12.34,17.74,2.38,3.38,3.2,7,1.32,10.78-2,4-5.43,5.59-9.87,5.26C150.76,195.37,148.75,195.49,145.26,195.49Z"/><path class="cls-1" d="M120.08,65.73c-6.29-9-12.33-17.46-18.2-26.07a3.84,3.84,0,0,1,.26-3.38c6.9-10.76,13.71-21.6,21.08-32,1.53-2.17,5.17-3.54,8-3.94,4.57-.64,9.29-.07,13.95-.19,3.89-.09,7.31.66,9.39,4.33,2.24,3.94,1.33,7.71-1,11.25-4.48,6.78-9,13.51-13.57,20.27Z"/></g></g></svg>