<svg width="512" height="512" viewBox="0 0 512 512" fill="none" xmlns="http://www.w3.org/2000/svg">
<g clip-path="url(#clip0_101:2)">
<path d="M434.582 110.165C432.562 107.938 429.695 106.668 426.689 106.666H85.355C79.464 106.64 74.667 111.394 74.641 117.285C74.639 117.636 74.655 117.986 74.688 118.335L106.688 459.668C107.101 464.047 110.159 467.723 114.389 468.927L263.722 511.594C264.686 511.868 265.685 512.004 266.687 511.999C267.831 511.998 268.969 511.818 270.058 511.466L398.058 468.799C402.073 467.463 404.918 463.881 405.311 459.668L437.311 118.335C437.592 115.35 436.6 112.384 434.582 110.165Z" fill="#B8A07E"/>
<path d="M266.689 426.667C265.7 426.661 264.716 426.517 263.766 426.24L189.099 404.907C185.434 403.864 182.604 400.944 181.675 397.248L171.008 354.581C169.45 348.9 172.793 343.031 178.474 341.473C184.155 339.915 190.024 343.258 191.582 348.939C191.626 349.098 191.665 349.257 191.701 349.418L200.874 386.111L266.687 404.927L331.54 386.388L350.74 213.353H160.02C154.129 213.353 149.353 208.577 149.353 202.686C149.353 196.795 154.129 192.019 160.02 192.019H362.687C368.578 191.983 373.382 196.73 373.418 202.621C373.42 203.035 373.399 203.448 373.353 203.859L352.02 395.859C351.536 400.159 348.502 403.741 344.34 404.926L269.673 426.259C268.704 426.537 267.698 426.674 266.689 426.667Z" fill="#FAFAFA"/>
<path d="M352.022 298.667H170.689C164.798 298.667 160.022 293.891 160.022 288C160.022 282.109 164.798 277.333 170.689 277.333H352.022C357.913 277.333 362.689 282.109 362.689 288C362.689 293.891 357.913 298.667 352.022 298.667Z" fill="#FAFAFA"/>
<path d="M192.022 64H149.355C143.464 64 138.688 59.224 138.688 53.333V10.667C138.689 4.776 143.464 0 149.355 0H192.022C197.913 0 202.689 4.776 202.689 10.667C202.689 16.558 197.913 21.334 192.022 21.334H160.022V42.667H192.022C197.913 42.667 202.689 47.443 202.689 53.334C202.689 59.225 197.913 64 192.022 64Z" fill="#B8A07E"/>
<path d="M277.355 64H234.688C228.797 64 224.021 59.224 224.021 53.333C224.021 47.442 228.797 42.666 234.688 42.666H251.605L227.136 18.218C222.965 14.058 222.957 7.30401 227.117 3.13301C229.123 1.12201 231.848 -0.00599053 234.688 -0.000990528H277.355C283.246 -0.000990528 288.022 4.77501 288.022 10.666C288.022 16.557 283.246 21.333 277.355 21.333H260.438L284.886 45.781C289.057 49.941 289.065 56.695 284.905 60.866C282.904 62.872 280.188 63.999 277.355 64Z" fill="#B8A07E"/>
<path d="M362.689 64H320.022C314.131 64 309.355 59.224 309.355 53.333C309.355 47.442 314.131 42.666 320.022 42.666H336.939L312.47 18.219C308.299 14.059 308.291 7.30502 312.451 3.13402C314.457 1.12302 317.182 -0.00498345 320.022 1.65517e-05H362.689C368.58 1.65517e-05 373.356 4.77602 373.356 10.667C373.356 16.558 368.58 21.334 362.689 21.334H345.772L370.22 45.782C374.391 49.942 374.399 56.696 370.239 60.867C368.238 62.872 365.521 63.999 362.689 64Z" fill="#B8A07E"/>
</g>
<defs>
<clipPath id="clip0_101:2">
<rect width="512" height="512" fill="white"/>
</clipPath>
</defs>
</svg>
