<svg width="452" height="500" viewBox="0 0 452 500" fill="none" xmlns="http://www.w3.org/2000/svg">
<path d="M451.8 437.2C451.8 471.2 424.2 499.9 390.2 499.9C388.1 499.9 384.9 499.9 382.8 499.9C350.9 495.6 327.5 467 328.6 435.1V65.3C327.5 33.4 350.9 5.8 382.8 0.500001C416.8 -3.8 447.6 20.7 451.9 54.7C451.9 56.8 451.9 60 451.9 62.1V437.2H451.8Z" fill="#B8A07E"/>
<path d="M61.8 376.7C95.8 376.7 123.4 404.3 123.4 438.3C123.4 472.3 95.8 499.9 61.8 499.9C27.8 499.9 0.200012 472.3 0.200012 438.3C-0.899988 404.3 27.8 376.7 61.8 376.7ZM224.4 188.6C190.4 190.7 163.8 219.4 163.8 253.4V420.2C163.8 464.8 184 492.5 212.7 498.8C246.7 505.2 278.6 483.9 286 449.9C287.1 445.6 287.1 441.4 287.1 437.1V251.1C287.1 217.1 259.5 188.4 225.5 188.4H224.4V188.6Z" fill="#B8A07E"/>
</svg>
