<svg xmlns="http://www.w3.org/2000/svg" xmlns:xlink="http://www.w3.org/1999/xlink" viewBox="0 0 57 65" fill="#fff" fill-rule="evenodd" stroke="#000" stroke-linecap="round" stroke-linejoin="round"><use xlink:href="#A" x=".5" y=".5"/><symbol id="A" overflow="visible"><g stroke="none" fill-rule="nonzero"><path d="M40 7.636v48C40 61.007 43.709 64 47.636 64c3.636 0 7.636-2.545 7.636-8.364V8c0-4.924-3.636-8-7.636-8S40 3.393 40 7.636z" fill="#f9ab00"/><path d="M20 32v23.636C20 61.008 23.709 64 27.636 64c3.636 0 7.636-2.545 7.636-8.364V32.364c0-4.924-3.636-8-7.636-8S20 27.757 20 32zM0 56.363a7.62 7.62 0 0 1 7.636-7.636 7.637 7.637 0 1 1 0 15.273A7.62 7.62 0 0 1 0 56.363z" fill="#e37400"/></g></symbol></svg>