<svg xmlns="http://www.w3.org/2000/svg" xmlns:xlink="http://www.w3.org/1999/xlink" viewBox="0 0 66 66" fill="#fff" fill-rule="evenodd" stroke="#000" stroke-linecap="round" stroke-linejoin="round"><use xlink:href="#A" x=".5" y=".5"/><symbol id="A" overflow="visible"><g stroke="none" fill-rule="nonzero"><path d="M58.864 0H47.206c-1.374.009-2.687.571-3.646 1.558s-1.482 2.32-1.453 3.697v58.887h16.757c1.38 0 2.703-.557 3.669-1.546s1.494-2.326 1.465-3.71V5.256c.029-1.384-.499-2.721-1.465-3.71S60.245 0 58.864 0z" fill="#f57c00"/><path d="M20.18 25.278v16.912H5.027a5.02 5.02 0 0 0-3.555 1.477A5.05 5.05 0 0 0 0 47.231v11.656C.019 61.675 2.247 63.941 5.027 64h37.08V20.272H25.243a5.02 5.02 0 0 0-3.565 1.451 5.05 5.05 0 0 0-1.498 3.554z" fill="#ffc107"/><path d="M58.901 63.714H5.063c-2.763 0-5.008-2.235-5.027-5.006v.429a5.05 5.05 0 0 0 1.472 3.565 5.02 5.02 0 0 0 3.555 1.477h53.838c1.381-.009 2.699-.575 3.659-1.571s1.478-2.337 1.44-3.721v-.286c-.019 2.816-2.291 5.093-5.099 5.113z" fill="#bf360c" opacity=".2"/></g></symbol></svg>