<svg width="313" height="250" viewBox="0 0 313 250" fill="none" xmlns="http://www.w3.org/2000/svg">
<g clip-path="url(#clip0_101:28)">
<mask id="path-1-inside-1_101:28" fill="white">
<path fill-rule="evenodd" clip-rule="evenodd" d="M48.1238 172.313L31.7496 178.285L30.8705 226.919L87.5522 206.246C68.111 199.725 53.9139 188.254 48.1238 172.313"/>
</mask>
<path d="M31.7496 178.285L27.6378 167.011L19.9005 169.834L19.7516 178.068L31.7496 178.285ZM30.8705 226.919L18.8724 226.702L18.5564 244.184L34.9823 238.193L30.8705 226.919ZM87.5522 206.246L91.664 217.519L123.876 205.771L91.3679 194.868L87.5522 206.246ZM44.012 161.039L27.6378 167.011L35.8615 189.559L52.2356 183.586L44.012 161.039ZM19.7516 178.068L18.8724 226.702L42.8685 227.136L43.7477 178.502L19.7516 178.068ZM34.9823 238.193L91.664 217.519L83.4404 194.972L26.7587 215.645L34.9823 238.193ZM91.3679 194.868C74.1222 189.085 63.5489 179.631 59.4028 168.216L36.8447 176.41C44.2789 196.877 62.0998 210.366 83.7366 217.623L91.3679 194.868Z" fill="#B8A07E" mask="url(#path-1-inside-1_101:28)"/>
<mask id="path-3-inside-2_101:28" fill="white">
<path fill-rule="evenodd" clip-rule="evenodd" d="M56.6928 120.874L-0.120026 141.596L31.7496 178.285L48.1238 172.313C42.3506 156.418 45.9109 138.451 56.6928 120.874"/>
</mask>
<path d="M-0.120026 141.596L-4.23184 130.322L-20.6166 136.298L-9.17948 149.465L-0.120026 141.596ZM31.7496 178.285L22.6902 186.154L28.1047 192.388L35.8614 189.559L31.7496 178.285ZM48.1238 172.313L52.2356 183.586L63.4941 179.48L59.4028 168.216L48.1238 172.313ZM52.581 109.601L-4.23184 130.322L3.99179 152.869L60.8046 132.148L52.581 109.601ZM-9.17948 149.465L22.6902 186.154L40.8091 170.416L8.93943 133.726L-9.17948 149.465ZM35.8614 189.559L52.2356 183.586L44.012 161.039L27.6378 167.012L35.8614 189.559ZM59.4028 168.216C55.282 156.871 57.3324 142.781 66.9216 127.149L46.4639 114.6C34.4893 134.121 29.4192 155.966 36.8447 176.41L59.4028 168.216Z" fill="#B8A07E" mask="url(#path-3-inside-2_101:28)"/>
<path d="M301.988 73.3347L52.1527 164.457C48.9593 148.148 55.8502 128.963 72.0839 110.011C90.1492 88.9219 118.968 69.2412 154.355 56.3348C189.741 43.4281 224.44 39.9421 251.803 44.4607C276.397 48.5221 293.979 58.7815 301.988 73.3347Z" stroke="#B8A07E" stroke-width="12"/>
<path d="M56.2417 175.739L306.088 84.6126C309.331 101.019 302.435 120.216 286.188 139.146C268.114 160.204 239.274 179.827 203.88 192.737C168.486 205.646 133.808 209.189 106.459 204.7C81.8679 200.664 64.2755 190.398 56.2417 175.739Z" stroke="#B8A07E" stroke-width="12"/>
<mask id="path-7-inside-3_101:28" fill="white">
<path fill-rule="evenodd" clip-rule="evenodd" d="M310.111 76.7585L48.1238 172.313C53.2539 186.437 72.8169 193.396 100.266 193.396C127.027 193.396 161.283 186.787 196.997 173.761C269.343 147.374 320.243 104.653 310.111 76.7585"/>
</mask>
<path d="M48.1238 172.313L44.012 161.039L32.7535 165.146L36.8447 176.41L48.1238 172.313ZM196.997 173.761L192.885 162.487L192.885 162.487L196.997 173.761ZM305.999 65.4849L44.012 161.039L52.2356 183.586L314.223 88.032L305.999 65.4849ZM36.8447 176.41C40.9928 187.83 50.5788 195.073 61.4549 199.327C72.3084 203.571 85.6944 205.396 100.266 205.396V181.396C87.3886 181.396 77.2685 179.741 70.1957 176.975C63.1455 174.218 60.3849 170.92 59.4029 168.216L36.8447 176.41ZM100.266 205.396C128.777 205.396 164.449 198.405 201.108 185.034L192.885 162.487C158.117 175.168 125.277 181.396 100.266 181.396V205.396ZM201.108 185.034C238.234 171.494 270.401 153.585 292.265 134.96C303.163 125.676 312.022 115.774 317.458 105.648C322.909 95.4952 325.483 83.931 321.39 72.6618L298.832 80.8552C299.805 83.5331 299.816 87.7693 296.312 94.2961C292.793 100.851 286.305 108.508 276.701 116.69C257.561 132.995 228.105 149.641 192.885 162.487L201.108 185.034Z" fill="#B8A07E" mask="url(#path-7-inside-3_101:28)"/>
<mask id="path-9-inside-4_101:28" fill="white">
<path fill-rule="evenodd" clip-rule="evenodd" d="M257.969 55.6756C231.208 55.6756 196.952 62.2847 161.238 75.3105C88.8924 101.697 37.9921 144.419 48.1238 172.313L310.111 76.7585C304.981 62.6341 285.418 55.6756 257.969 55.6756"/>
</mask>
<path d="M161.238 75.3105L157.126 64.037L157.126 64.037L161.238 75.3105ZM48.1238 172.313L36.8447 176.41L40.9469 187.704L52.2356 183.586L48.1238 172.313ZM310.111 76.7585L314.223 88.032L325.481 83.9258L321.39 72.6618L310.111 76.7585ZM257.969 43.6756C229.458 43.6756 193.786 50.6661 157.126 64.037L165.35 86.5841C200.118 73.9033 232.958 67.6756 257.969 67.6756V43.6756ZM157.126 64.037C120.001 77.5777 87.8339 95.4859 65.9701 114.112C55.0724 123.395 46.2132 133.298 40.7773 143.423C35.3263 153.576 32.7516 165.14 36.8447 176.41L59.4028 168.216C58.4301 165.538 58.4186 161.302 61.9226 154.775C65.4418 148.22 71.9297 140.563 81.5338 132.381C100.674 116.076 130.129 99.4301 165.35 86.5841L157.126 64.037ZM52.2356 183.586L314.223 88.032L305.999 65.4849L44.012 161.039L52.2356 183.586ZM321.39 72.6618C317.242 61.2414 307.656 53.9979 296.78 49.7446C285.927 45.5002 272.541 43.6756 257.969 43.6756V67.6756C270.846 67.6756 280.967 69.3304 288.039 72.0963C295.089 74.8533 297.85 78.1512 298.832 80.8551L321.39 72.6618Z" fill="#B8A07E" mask="url(#path-9-inside-4_101:28)"/>
<path fill-rule="evenodd" clip-rule="evenodd" d="M243.5 229.494H243.498C235.79 229.494 224.418 222.543 209.698 208.833C192.284 192.613 172.335 168.857 153.527 141.94C134.719 115.024 119.265 88.1144 110.011 66.1677C99.9278 42.2513 98.4903 27.5459 105.738 22.4598C107.327 21.3458 109.242 20.7814 111.431 20.7814C117.326 20.7814 128.813 25.1635 150.054 46.041L150.518 46.4972L150.455 47.1461C150.31 48.6459 150.176 50.1592 150.057 51.6445L149.82 54.5937L147.736 52.4976C124.85 29.4775 114.775 26.9923 111.506 26.9923C110.574 26.9923 109.831 27.1815 109.299 27.5552C106.155 29.7605 105.953 40.562 115.728 63.7463C124.817 85.3018 140.047 111.804 158.612 138.372C177.177 164.942 196.82 188.347 213.924 204.277C232.367 221.454 240.678 223.309 243.395 223.309C244.334 223.309 245.096 223.108 245.661 222.711C248.978 220.384 248.982 208.813 238.08 183.859L237.58 182.713L238.675 182.115C239.771 181.516 240.831 180.926 241.824 180.362L243.137 179.617L243.742 181.001C251.471 198.683 258.697 221.156 249.222 227.806C247.625 228.926 245.7 229.494 243.5 229.494V229.494ZM243.498 226.767H243.5L243.499 228.13L243.498 226.767Z" fill="#B8A07E"/>
<path fill-rule="evenodd" clip-rule="evenodd" d="M207.692 197.628L207.582 198.987C205.753 221.582 200.938 248.747 188.381 249.847C188.128 249.869 187.866 249.881 187.604 249.881C179.075 249.881 171.004 237.679 163.619 213.613C156.631 190.846 151.209 160.277 148.35 127.537C145.492 94.8052 145.535 63.7572 148.471 40.1135C151.671 14.3491 157.764 0.894098 166.579 0.121773C166.84 0.0977879 167.11 0.0854263 167.377 0.0854263C173.565 0.0854263 182.891 7.081 192.438 39.6651L186.204 40.8664C183.016 29.9777 179.542 21.1216 176.094 15.0362C172.903 9.40738 169.802 6.30757 167.359 6.30757C167.279 6.30757 167.198 6.31089 167.118 6.31771C163.297 6.65277 157.733 15.9061 154.631 40.8817C151.747 64.1013 151.712 94.684 154.533 126.996C157.355 159.313 162.689 189.425 169.551 211.785C172.625 221.799 175.996 230.052 179.3 235.653C182.347 240.817 185.295 243.661 187.603 243.661C187.682 243.661 187.761 243.658 187.84 243.651C191.496 243.331 198.385 233.702 201.285 199.823L207.692 197.628" fill="#B8A07E"/>
</g>
<defs>
<clipPath id="clip0_101:28">
<rect width="313" height="250" fill="white"/>
</clipPath>
</defs>
</svg>
