<svg width="256" height="256" viewBox="0 0 256 256" fill="none" xmlns="http://www.w3.org/2000/svg">
<path d="M23.2068 6H232.793C242.296 6 250 13.704 250 23.2068V232.793C250 242.296 242.296 250 232.793 250H23.2068C13.704 250 6 242.296 6 232.793V23.2068C6 13.704 13.704 6 23.2068 6Z" stroke="#B8A07E" stroke-width="12"/>
<path d="M95.1937 65.1326C95.1937 70.3896 90.9255 74.545 85.5554 74.545C80.1858 74.545 75.9181 70.3901 75.9181 65.1326C75.9181 59.8834 80.1833 55.728 85.5554 55.728C90.928 55.728 95.1937 59.8839 95.1937 65.1326Z" stroke="#B8A07E" stroke-width="12"/>
<path d="M64.8572 109.151H54.5331L56.8004 100.787H88.2046L72.8444 161.715C71.6052 166.436 71.0453 170.577 71.0453 173.736C71.0453 176.918 71.8543 180.09 74.2954 182.537C76.5142 184.761 79.3226 185.569 81.2472 186.003L81.2547 186.005C82.7888 186.349 85.019 186.315 87.2774 185.999C88.4591 185.833 89.7813 185.573 91.2019 185.179C86.2694 189.166 80.7446 191.222 74.7472 191.222C68.0805 191.222 64.0787 189.329 61.7095 186.863C59.2979 184.354 57.7489 180.389 57.7489 174.641C57.7489 171.672 58.1537 167.922 58.9636 164.464L70.6852 116.577L72.503 109.151H64.8572ZM121.188 109.151H110.632L112.899 100.787H140.18L136.715 116.624L142.728 118.843C139.615 123.282 137.388 128.833 135.832 135.152C135.831 135.156 135.83 135.159 135.829 135.162L122.248 189.635H108.858L111.625 178.533L106.295 176.307C109.643 172.99 112.782 168.639 115.331 162.973L115.55 162.484L115.68 161.965L127.009 116.604L128.871 109.151H121.188ZM163.274 107.889C161.093 107.889 159.004 108.139 157.019 108.635C158.257 107.428 159.552 106.294 160.89 105.254C166.254 101.085 171.83 98.7874 176.842 98.7874C182.632 98.7874 187.606 100.824 191.15 104.553C194.693 108.283 197.29 114.223 197.29 122.887C197.29 127.371 196.681 132.302 195.007 137.954L194.993 138.001L194.98 138.048L187.619 164.487L187.597 164.567L187.577 164.647C186.88 167.446 186.249 170.363 186.249 173.229C186.249 176.177 186.815 179.441 188.86 182.078C191.116 184.986 194.367 186.124 197.54 186.124C201.137 186.124 204.657 184.635 207.827 181.126C208.143 180.777 208.456 180.407 208.767 180.015C207.292 182.364 205.727 184.26 204.112 185.767C200.152 189.461 195.551 191.138 190.18 191.138C183.448 191.138 179.283 189.169 176.79 186.62C174.265 184.039 172.724 180.118 172.724 174.832C172.724 171.647 173.121 168.312 174.088 165.026L174.099 164.988L174.11 164.949L181.681 137.882C182.81 134.176 183.072 130.81 183.072 127.917C183.072 122.333 181.359 117.182 177.632 113.41C173.898 109.63 168.787 107.889 163.274 107.889Z" stroke="#B8A07E" stroke-width="12"/>
</svg>
