<?xml version="1.0"?>
<svg xmlns="http://www.w3.org/2000/svg" xmlns:xlink="http://www.w3.org/1999/xlink" version="1.1" id="Capa_1" x="0px" y="0px" viewBox="0 0 512 512" style="enable-background:new 0 0 512 512;" xml:space="preserve" width="512px" height="512px"><g><g>
	<g>
		<path d="M0,0v512h512V0H0z M482,482H30V30h452V482z" data-original="#000000" class="active-path" data-old_color="#000000" fill="#B8A07E"/>
	</g>
</g><g>
	<g>
		<path d="M229.18,181.6h-72.24V352h33.12v-57.12h40.32c29.531,0,53.04-25.713,53.04-56.64C283.42,212,262.244,181.6,229.18,181.6z     M228.461,265.84h-38.4v-55.2h36.96c14.057,0,22.8,13.2,22.8,27.6C249.821,255,240.079,265.84,228.461,265.84z" data-original="#000000" class="active-path" data-old_color="#000000" fill="#B8A07E"/>
	</g>
</g><g>
	<g>
		<path d="M378.217,254.08V224.8c-29.04-3.05-43.121,24-45.36,28.32v-26.88h-29.52V352h32.16v-76.08    C338.857,268.72,349.927,254.08,378.217,254.08L378.217,254.08z" data-original="#000000" class="active-path" data-old_color="#000000" fill="#B8A07E"/>
	</g>
</g></g> </svg>
