<svg xmlns="http://www.w3.org/2000/svg" viewBox="0 0 97.93 96.5"><defs><style>.cls-1{fill:#b8a07e;}</style></defs><g id="圖層_2" data-name="圖層 2"><g id="圖層_1-2" data-name="圖層 1"><path class="cls-1" d="M46.29,57.73c-.1-8,.84-6.91-6.81-7-1.17,0-2.34-.08-3.49,0-2.24.17-3.35-.52-3.3-3S34.18,45.22,36,45.1c3.27-.23,7.39,1.49,9.58-.88s.56-6.37.72-9.66c.09-2.07-.18-4,3-3.83,3,.12,2.34,2.1,2.45,3.81,0,.17,0,.34,0,.5.16,9.8.16,9.83,9.7,10.06,2.13,0,3.93-.1,3.85,3-.1,3.33-2.35,2.56-4.2,2.59-9.29.2-9.23.19-9.4,9.37,0,2,1.35,5-2.81,4.87C45,64.82,46.65,62,46.31,60.22A13.79,13.79,0,0,1,46.29,57.73Z"/><path class="cls-1" d="M88.74,24.35c0,2.3-1.64,2-3.13,2.14-8.53.61-8.53.62-8.91,9.4-.07,1.62.39,3.52-2.28,3.45C72,39.28,72,37.6,72,35.85v-1c-.15-8.16-.15-8.13-8-8.4-1.65-.06-4.07.78-4-2.24.06-2.68,2.25-1.85,3.76-2a20.46,20.46,0,0,1,4,0c3.2.36,4.66-.84,4.3-4.18a29.7,29.7,0,0,1,0-5c.11-1.65-.78-3.94,2.22-4.07s2.39,2.08,2.45,3.8c.3,8.79.29,8.79,8.92,9.42C88.3,22.43,88.74,22.73,88.74,24.35Z"/><path class="cls-1" d="M75.12,86.12c-1.81,0-3-.14-3-1.77,0-.66,0-1.32,0-2-.25-8.72-.25-8.72-9-9.25-1.43-.09-3.22.37-3.09-2,.11-2,1.64-1.67,2.92-1.78,8.88-.73,8.87-.74,9.19-9.55.06-1.69-.62-3.88,2.41-3.83s1.88,2.43,2.18,4a5.46,5.46,0,0,1,0,1c0,8.23,0,8.18,8.22,8.47,1.4,0,3.7-1,3.82,1.72.15,3.25-2.48,2-4,2-8,.24-7.94.18-8.14,8.63C76.6,83.3,78,86,75.12,86.12Z"/><path class="cls-1" d="M23.65,86.06c-1.44.11-2-.51-2.14-2-.21-3.44,1.45-7.65-.79-10.12s-6.3-.55-9.56-.86c-1.33-.12-2.25-.44-2.16-2s1.27-1.59,2.46-1.74c3.22-.39,7.36,1.57,9.45-1,1.93-2.41.42-6.4.62-9.69.08-1.38.07-2.64,2-2.64s2.2,1.06,2.17,2.55a8.34,8.34,0,0,0,0,1c.29,3.1-1.33,6.94.75,9.12,1.93,2,5.69.5,8.64.71,1.37.1,2.69,0,2.65,2S36.22,73,35,73.07c-8.95.64-8.95.64-9.23,9.51C25.64,85.89,25.53,86.07,23.65,86.06Z"/><path class="cls-1" d="M37.75,24.05c0,2.39-1.49,2.1-2.79,2.23-2.92.29-6.61-1.34-8.58.88s-.41,5.76-.68,8.71c-.12,1.36.58,3.2-1.82,3.34-2.71.16-2.21-1.81-2.28-3.41,0-.16,0-.33,0-.5-.2-8.66-.2-8.64-8.89-9-1.52-.07-3.72.61-3.65-2.07.07-2.26,2-1.71,3.41-1.85.33,0,.66,0,1,0,8.08-.14,8.08-.14,8.13-8.27,0-.83,0-1.66,0-2.5C21.59,10,22,9,23.85,9.06c1.62.09,1.85,1.08,1.85,2.36a60.87,60.87,0,0,1,0,6.48c-.38,3.52,1,4.85,4.48,4.46a41.89,41.89,0,0,1,5.49,0C37,22.37,38,22.75,37.75,24.05Z"/><path class="cls-1" d="M59.17,85.52c-.16,1.9-1.68,1.86-3,1.68-4.33-.58-5.58,1.45-5.19,5.44.15,1.43.81,3.74-1.8,3.86-3.06.14-2.33-2.42-2.15-4,.45-4.09-1-5.9-5.23-5.32-1.17.16-2.94.45-3-1.6,0-2.48,2-1.93,3.27-1.76,4,.56,5.33-1.15,4.94-5-.16-1.54-1-4,2.09-4,2.78,0,2,2.31,1.86,3.69-.44,4,.86,6,5.17,5.33C57.4,83.64,59,83.39,59.17,85.52Z"/><path class="cls-1" d="M97.92,46.94c.18,3.35-1.7,3-3,2.81-4.18-.6-5.64,1.08-5.14,5.18.17,1.33,1.06,3.67-1.67,3.83-3.09.18-2.4-2.33-2.2-3.88.54-4.16-1-5.74-5.16-5.13-1.2.18-2.83.39-3-1.65-.14-2.34,1.6-2.29,3-2.07,4.28.65,5.58-1.22,5.08-5.25-.18-1.41-.82-3.62,1.84-3.77s2.25,2.08,2.06,3.51c-.57,4.26.79,6.26,5.33,5.5C96.4,45.81,97.9,45.82,97.92,46.94Z"/><path class="cls-1" d="M58.51,10c0,1.74-1.39,1.81-2.48,1.63C51.58,11,50,12.8,50.62,17.15c.17,1.16.58,3.12-1.32,3.19-2.38.08-1.72-2.15-1.57-3.38.49-4-.81-5.94-5.11-5.28-1,.16-2.58.31-2.79-1.28-.25-1.85,1.39-1.7,2.39-1.53,4.92.86,6-1.62,5.5-5.84-.13-1.13-.61-3,1.46-3,1.66,0,1.61,1.53,1.45,2.6-.74,4.81.8,7.25,6,6.27A1.41,1.41,0,0,1,58.51,10Z"/><path class="cls-1" d="M18.48,48.5a7.33,7.33,0,0,1-2.34.42c-4.41-.7-6.07,1.09-5.44,5.47.15,1.1.73,3.06-1.18,3.23-2.48.23-1.83-2-1.67-3.23.59-4.32-.94-6.22-5.4-5.45A2.4,2.4,0,0,1,0,48.17,1.43,1.43,0,0,1,1.9,46.8c4.74.75,6.74-1,5.93-5.91C7.67,39.9,7.36,38.44,9,38c1-.24,1.84.31,1.65,1.23-1.3,6.48,2,8.59,8.82,7.61Z"/></g></g></svg>