<svg width="243" height="242" viewBox="0 0 243 242" fill="none" xmlns="http://www.w3.org/2000/svg">
<g clip-path="url(#clip0_753_1607)">
<path d="M45.5625 110.917C53.9503 110.917 60.75 104.145 60.75 95.792C60.75 87.4387 53.9503 80.667 45.5625 80.667C37.1747 80.667 30.375 87.4387 30.375 95.792C30.375 104.145 37.1747 110.917 45.5625 110.917Z" fill="white"/>
<path d="M224.471 92.4639C224.471 53.0381 192.173 21.2756 152.483 21.8806C113.704 22.4856 81.7088 55.8614 82.8225 94.3797C83.7338 128.461 108.945 156.493 141.851 161.938V201.666H60.75V171.416H65.8125C68.6475 171.416 70.875 169.198 70.875 166.375V131.083C70.875 125.537 66.3188 121 60.75 121H30.375C24.8062 121 20.25 125.537 20.25 131.083V166.375C20.25 169.198 22.4775 171.416 25.3125 171.416H30.375V211.75C30.375 217.296 34.9312 221.833 40.5 221.833H182.25C187.819 221.833 192.375 217.296 192.375 211.75C192.375 206.204 187.819 201.666 182.25 201.666H162V162.543C197.134 158.409 224.471 128.663 224.471 92.4639Z" fill="white"/>
<path d="M137.111 39.333C125.778 39.333 122 48.2762 122 59.308C122 79.283 144.1 97.4421 156 101.666C167.9 97.4421 190 79.283 190 59.308C190 48.2762 185.216 39.333 174.889 39.333C168.564 39.333 159.384 48.0515 156 53.1849C152.616 48.0515 143.436 39.333 137.111 39.333Z" fill="#B79F7E" stroke="#B79F7E" stroke-width="4" stroke-linecap="round" stroke-linejoin="round"/>
<path d="M156 101.666C150.333 104.757 141.833 111.583 141.833 121.499C141.833 131.416 170.167 128.583 170.167 138.499C170.167 148.416 139 152.666 139 152.666" stroke="#B79F7E" stroke-width="4" stroke-linecap="round" stroke-linejoin="round"/>
</g>
<defs>
<clipPath id="clip0_753_1607">
<rect width="243" height="242" fill="white"/>
</clipPath>
</defs>
</svg>
