<svg width="24" height="24" viewBox="0 0 24 24" fill="none" xmlns="http://www.w3.org/2000/svg">
<path d="M22 1H2C1.45 1 1 1.45 1 2V22C1 22.55 1.45 23 2 23H22C22.55 23 23 22.55 23 22V2C23 1.45 22.55 1 22 1ZM21 21H3V9H21V21ZM21 7H3V3H21V7Z" fill="#B8A07E"/>
<path d="M7 5C7 4.44772 6.55228 4 6 4C5.44772 4 5 4.44772 5 5C5 5.55228 5.44772 6 6 6C6.55228 6 7 5.55228 7 5Z" fill="#B8A07E"/>
<path d="M11 5C11 4.44772 10.5523 4 10 4C9.44771 4 9 4.44772 9 5C9 5.55228 9.44771 6 10 6C10.5523 6 11 5.55228 11 5Z" fill="#B8A07E"/>
<path d="M15 5C15 4.44772 14.5523 4 14 4C13.4477 4 13 4.44772 13 5C13 5.55228 13.4477 6 14 6C14.5523 6 15 5.55228 15 5Z" fill="#B8A07E"/>
</svg>
